<svg version="1.1" id="Layer_1" xmlns="http://www.w3.org/2000/svg" xmlns:xlink="http://www.w3.org/1999/xlink" x="0px" y="0px"
	 width="100%" viewBox="0 0 1024 560" enable-background="new 0 0 1024 560" xml:space="preserve">
<path fill="#000000" opacity="1.000000" stroke="none" 
	d="
M280.061829,255.056580 
	C287.841827,243.760498 291.669220,231.595001 291.942047,218.221191 
	C292.176392,206.735779 297.110748,199.372070 305.833679,196.870468 
	C317.544342,193.512039 329.109772,202.346008 329.152008,215.282928 
	C329.220612,236.293365 323.487152,255.708389 311.720093,273.222595 
	C298.576080,292.786194 281.274933,307.011780 258.672852,314.409180 
	C257.748108,314.711823 256.891541,315.222870 255.747162,315.756134 
	C257.279022,319.661926 259.435211,320.788361 263.473053,319.286469 
	C286.901367,310.572205 304.412201,294.807556 317.823700,274.109222 
	C320.356354,270.200500 322.620483,266.113007 324.899902,262.047089 
	C326.079285,259.943420 327.234039,257.840454 330.004669,257.925049 
	C332.550842,258.002808 333.548431,260.096436 334.618256,262.001495 
	C342.415497,275.885956 353.595490,285.488831 369.369629,289.079132 
	C373.082855,289.924316 376.920746,290.308746 380.724396,290.640472 
	C383.460815,290.879150 386.045105,291.439026 386.008667,294.622742 
	C385.968811,298.108978 383.228973,298.693695 380.285156,298.601257 
	C361.147308,298.000336 345.585571,290.267029 333.639282,275.284332 
	C332.511322,273.869690 331.335815,272.492950 329.630524,270.431458 
	C314.398499,295.993530 294.424866,315.791077 266.382629,326.538086 
	C268.058411,330.232361 270.096405,331.031860 273.384094,329.749847 
	C283.255737,325.900543 292.253876,320.599640 300.455688,313.932861 
	C310.601166,305.686188 314.433868,305.617523 324.299164,314.104218 
	C332.736267,321.362274 342.104645,326.943115 352.604309,330.628052 
	C353.389984,330.903809 354.168976,331.198700 354.949615,331.488617 
	C357.673615,332.500427 360.059631,334.102417 358.861816,337.329376 
	C357.713959,340.421753 355.006134,340.464081 352.139679,339.418030 
	C343.177979,336.147736 334.592102,332.136566 326.859833,326.501190 
	C323.498871,324.051697 320.379272,321.273315 317.110199,318.694794 
	C313.823364,316.102295 310.404144,315.834839 307.077606,318.559387 
	C298.567749,325.529205 289.415649,331.476379 278.864502,336.021332 
	C282.439209,339.433929 285.974304,339.569275 289.755890,337.929810 
	C294.211090,335.998352 298.226868,333.328888 302.160736,330.500214 
	C309.363098,325.321289 314.562561,325.299896 321.903809,330.186615 
	C327.171143,333.692841 332.459747,337.167236 337.751465,340.636627 
	C340.290436,342.301270 342.586761,344.352814 340.702362,347.535522 
	C338.795593,350.756042 336.124512,348.982117 333.737061,347.727875 
	C328.852203,345.161621 324.341980,342.021484 319.925903,338.739258 
	C313.357849,333.857635 311.141327,333.777161 304.307312,338.473938 
	C302.448242,339.751617 300.271820,340.725891 299.011902,343.088928 
	C303.668701,345.359985 308.538239,344.624207 313.277161,344.823517 
	C316.532928,344.960480 320.106720,344.939270 320.208649,349.379089 
	C320.316650,354.082581 316.717560,354.294312 313.194122,354.374695 
	C271.308472,355.330200 236.505371,323.666687 233.529465,282.076263 
	C233.004639,274.741608 233.193817,267.426514 233.048233,260.102325 
	C232.946472,254.982574 234.732819,251.259216 239.670227,248.904419 
	C247.525009,245.158249 250.900681,238.540878 251.021240,229.901718 
	C251.190826,217.750793 250.525375,205.600021 251.575180,193.444534 
	C253.799316,167.691895 275.278076,144.568665 300.836060,140.763107 
	C339.156982,135.057159 371.331085,162.854858 371.329834,201.667633 
	C371.329468,212.832886 371.305298,223.998230 371.339630,235.163376 
	C371.365387,243.530365 374.363892,246.915787 382.571991,247.996902 
	C385.717255,248.411179 389.011658,249.214676 388.602142,253.138931 
	C388.200317,256.989136 384.830322,257.314362 381.658905,257.086700 
	C370.990784,256.320862 362.821472,247.711868 362.704102,236.881683 
	C362.577698,225.217834 362.686127,213.551590 362.665985,201.886429 
	C362.615387,172.604309 341.206573,149.343948 312.125092,148.721741 
	C281.164093,148.059296 261.465973,172.844925 260.320435,195.494705 
	C259.765442,206.467026 260.038788,217.486191 260.098053,228.483292 
	C260.162201,240.378952 255.989655,249.957642 245.386627,256.076904 
	C242.361237,257.822937 241.778275,260.075012 243.060287,263.657959 
	C255.049179,260.502045 264.182159,253.938492 270.559082,243.540848 
	C275.950592,234.749924 277.699982,225.105362 277.761932,214.887848 
	C277.884155,194.716370 295.185059,179.381180 314.632965,181.855377 
	C332.364594,184.111237 343.578461,197.761826 343.985443,217.729706 
	C344.141632,225.392410 343.884918,233.066818 344.166504,240.723022 
	C344.871857,259.902283 359.230927,274.458435 378.495453,275.752289 
	C380.157349,275.863922 381.830353,275.826904 383.488708,275.969482 
	C385.985382,276.184143 388.248810,276.924072 388.237335,279.972107 
	C388.225372,283.156555 386.100006,284.255890 383.249054,284.268311 
	C372.444336,284.315460 362.412201,281.555359 353.693512,275.130066 
	C342.109039,266.592896 336.100281,254.912949 335.732788,240.512146 
	C335.520294,232.185150 335.761292,223.847626 335.657837,215.516556 
	C335.478790,201.096222 324.851288,190.312500 310.849548,190.215210 
	C297.106262,190.119720 286.504211,200.563843 286.170380,214.947327 
	C285.722565,234.243042 279.791382,250.894394 263.943085,263.000000 
	C258.720001,266.989594 252.818771,269.632446 246.576950,271.609741 
	C242.037766,273.047668 241.783890,273.713959 243.260605,279.431213 
	C258.582336,276.071045 270.608734,267.872559 280.061829,255.056580 
M317.899445,240.440689 
	C320.168549,232.023956 321.156372,223.464325 320.878235,214.746643 
	C320.719391,209.766357 318.195435,206.661224 313.556091,205.191467 
	C306.401123,202.924759 300.529114,208.092896 300.377472,217.012222 
	C299.802551,250.836884 278.294495,278.914154 247.912659,286.941559 
	C244.799896,287.764008 243.633621,289.273773 244.554520,292.268036 
	C245.447952,295.173004 247.544418,294.780365 249.813446,294.080597 
	C262.820953,290.069183 274.247864,283.378540 283.496887,273.389099 
	C298.040253,257.681458 306.629028,239.374588 306.772888,217.589539 
	C306.792419,214.631485 307.261902,211.416626 311.081390,211.522156 
	C314.802490,211.624985 315.357056,214.805206 315.201233,217.770386 
	C314.974426,222.085052 314.845947,226.466141 313.981445,230.676392 
	C306.939911,264.970154 287.652161,288.997437 254.386765,301.171875 
	C252.569656,301.836884 250.444656,301.842865 249.049896,303.428558 
	C250.525436,308.193909 251.093979,308.592987 256.253632,306.785919 
	C288.116791,295.626343 307.493500,272.710571 317.899445,240.440689 
z"/>
<path fill="#000000" opacity="1.000000" stroke="none" 
	d="
M684.644287,288.061279 
	C684.652344,276.619354 684.796448,276.376434 695.096985,272.359558 
	C709.883301,266.593384 724.957092,266.189484 740.196594,270.204956 
	C752.150635,273.354767 764.125610,276.144226 776.638916,274.850861 
	C798.343201,272.607483 817.349915,264.118713 833.990234,250.131195 
	C835.009460,249.274384 835.965027,248.297928 837.099365,247.630569 
	C839.997681,245.925369 842.926636,245.954529 845.274658,248.521057 
	C847.673401,251.143066 847.404602,254.066116 845.097229,256.621796 
	C840.035034,262.228790 834.046753,266.730865 827.619324,270.643097 
	C821.211853,274.543213 814.724121,278.353577 807.544128,280.657410 
	C804.104431,281.761108 802.934265,283.701660 802.980591,287.256592 
	C803.147827,300.083435 803.107117,312.914185 803.007812,325.742432 
	C802.980835,329.224426 802.725830,332.746704 802.133728,336.174194 
	C800.548096,345.352509 792.726501,352.099945 782.511719,352.200836 
	C756.356812,352.459198 730.195862,352.481079 704.041321,352.207092 
	C692.934021,352.090759 684.858154,343.387360 684.708313,332.034790 
	C684.516968,317.542084 684.650513,303.045044 684.644287,288.061279 
M772.430969,288.380402 
	C761.309631,288.963470 750.607422,286.629578 739.968750,283.776367 
	C729.559570,280.984680 718.991577,279.929626 708.368347,282.134827 
	C699.351624,284.006500 699.397705,284.223602 699.385864,293.584320 
	C699.383118,295.749207 699.574158,297.938354 699.319824,300.073914 
	C698.801880,304.423737 700.444153,305.856262 704.890442,305.808868 
	C724.872070,305.595947 744.857300,305.699219 764.841187,305.720062 
	C766.662109,305.721954 768.572937,305.639709 770.284668,306.137482 
	C773.712036,307.134155 775.565125,309.595062 775.227051,313.258575 
	C774.911621,316.675720 772.830261,318.685059 769.492188,319.209625 
	C767.862244,319.465790 766.170105,319.360321 764.506104,319.360657 
	C744.688721,319.364685 724.871277,319.338226 705.054016,319.385468 
	C703.176758,319.389923 700.927307,318.664642 699.709412,321.000946 
	C696.166931,327.796875 701.928284,338.431976 709.707886,338.520142 
	C732.186340,338.774963 754.670959,338.734192 777.150208,338.513947 
	C783.489319,338.451813 787.453308,334.800018 787.544189,329.204926 
	C787.765747,315.556915 787.577393,301.902100 787.513794,288.250244 
	C787.511902,287.842499 787.061096,287.436859 786.636780,286.722595 
	C784.561157,287.086670 782.469727,287.541565 780.354309,287.800873 
	C778.047974,288.083618 775.719360,288.184998 772.430969,288.380402 
z"/>
<path fill="#000000" opacity="1.000000" stroke="none" 
	d="
M216.801666,278.487244 
	C217.806854,304.199829 226.995987,325.949127 245.089508,343.656555 
	C295.370361,392.864410 375.618683,372.549194 399.474091,308.885132 
	C403.430420,298.326691 405.048492,287.340759 405.615173,276.166626 
	C405.921509,270.126221 408.360657,266.939148 413.082520,266.898468 
	C417.665985,266.859009 420.257660,270.216125 420.320129,276.273712 
	C420.887299,331.246124 376.966492,380.316833 322.606567,385.237579 
	C318.423767,385.616211 318.327576,387.842499 318.336548,390.909241 
	C318.386292,407.904541 318.381775,424.900055 318.363464,441.895447 
	C318.356384,448.472992 315.933655,451.457153 310.824249,451.342072 
	C306.115143,451.235992 303.638702,448.100250 303.622955,441.930176 
	C303.579956,425.101471 303.462006,408.270660 303.695068,391.445099 
	C303.758270,386.881683 302.175842,385.762024 297.766724,385.143494 
	C261.786835,380.096100 234.625549,361.449677 216.139511,330.394989 
	C206.139236,313.595490 201.635712,295.075500 201.718750,275.508270 
	C201.740219,270.450897 204.708160,267.144409 208.961929,266.932617 
	C213.201187,266.721558 215.951736,269.725037 216.419632,275.060638 
	C216.506882,276.055450 216.636673,277.046539 216.801666,278.487244 
z"/>
<path fill="#000000" opacity="1.000000" stroke="none" 
	d="
M467.896057,290.531952 
	C462.044128,285.116486 462.730835,280.363373 469.600464,277.258453 
	C474.908661,274.859222 480.301575,272.637024 485.720154,270.496460 
	C488.706726,269.316620 490.144012,267.546448 490.116364,264.146423 
	C490.028412,253.321167 490.179443,242.493256 490.314087,231.667297 
	C490.361877,227.823746 489.084686,225.770325 484.776276,226.083420 
	C480.801697,226.372253 476.773712,226.285629 472.792236,226.019867 
	C468.708374,225.747238 465.733704,223.840057 465.702362,219.244324 
	C465.671936,214.780609 468.278107,212.483826 472.492462,212.170288 
	C476.471161,211.874268 480.490967,211.771408 484.472626,211.975128 
	C488.512848,212.181824 490.213074,210.780685 490.081360,206.566406 
	C489.868134,199.744461 490.020874,192.908020 490.145386,186.080002 
	C490.197174,183.239105 490.489166,180.338715 492.894012,178.320663 
	C495.300110,176.301636 498.124481,176.098511 500.882294,177.283005 
	C503.985748,178.615982 505.145721,181.423050 505.189819,184.603058 
	C505.289124,191.764786 505.517273,198.942291 505.159332,206.086655 
	C504.920013,210.864227 506.806122,212.351486 511.236420,211.958038 
	C513.372681,211.768311 515.601807,211.823273 517.703064,212.220810 
	C521.191406,212.880753 523.226135,215.025345 523.339661,218.787384 
	C523.452759,222.536514 521.639038,224.970978 518.130188,225.648026 
	C515.226929,226.208221 512.179871,226.089432 509.194489,226.135590 
	C506.908691,226.170944 505.271179,226.701065 505.278046,229.436081 
	C505.303955,239.741013 505.288391,250.046066 505.288391,260.622223 
	C508.638245,260.866272 510.905304,258.996582 513.424927,258.004120 
	C517.782532,256.287720 521.262451,257.225525 522.828369,260.619141 
	C524.502502,264.247162 523.195251,268.348267 519.392273,270.409576 
	C516.325867,272.071655 513.129700,273.551666 509.864441,274.774139 
	C506.416626,276.064911 505.077209,278.142090 505.159698,281.919159 
	C505.392487,292.575348 505.227112,303.239990 505.241730,313.901276 
	C505.249084,319.256805 504.534088,324.530304 503.291168,329.715790 
	C500.014221,343.387421 490.617096,350.752838 477.574982,354.082764 
	C473.098450,355.225708 469.032532,352.869659 467.948151,349.067505 
	C466.834717,345.163300 468.850464,341.131165 473.544647,339.902283 
	C485.808746,336.691681 490.209259,328.359772 490.049744,316.490692 
	C489.909363,306.046844 490.020386,295.599640 490.020386,285.049530 
	C485.683624,284.553711 483.106079,287.057465 480.061768,288.108490 
	C476.225800,289.432831 472.758270,292.443512 467.896057,290.531952 
z"/>
<path fill="#000000" opacity="1.000000" stroke="none" 
	d="
M554.306396,273.700745 
	C569.424072,273.683228 584.076416,273.667877 598.728821,273.679382 
	C615.701782,273.692688 623.321533,279.773407 624.731445,296.446320 
	C625.792969,308.999939 626.072815,321.732361 624.342590,334.314545 
	C622.882507,344.932098 615.491577,351.953552 604.829224,352.177063 
	C587.354614,352.543304 569.859253,352.591400 552.387268,352.169037 
	C541.361023,351.902496 533.130554,342.982117 532.789978,331.412872 
	C532.432495,319.268799 532.451355,307.099396 532.775513,294.953552 
	C533.091919,283.099945 540.519958,275.905731 554.306396,273.700745 
M586.470276,338.582397 
	C590.784668,338.432678 595.139343,338.600647 599.404114,338.059753 
	C606.019287,337.220825 608.650818,334.802582 609.194702,328.166565 
	C610.022522,318.066528 610.167114,307.880829 609.166443,297.792542 
	C608.393188,289.996338 605.913391,288.163116 598.071716,288.122559 
	C585.432861,288.057190 572.793213,288.096924 560.154114,288.142578 
	C551.527222,288.173706 548.443054,291.176025 548.342529,299.798370 
	C548.241638,308.445129 548.273132,317.094147 548.323303,325.741730 
	C548.376099,334.839111 551.816345,338.372498 561.033081,338.541656 
	C569.179382,338.691193 577.330505,338.579681 586.470276,338.582397 
z"/>
<path fill="#000000" opacity="1.000000" stroke="none" 
	d="
M840.346802,232.345551 
	C822.215698,249.053757 801.251892,258.674835 777.019531,260.923889 
	C765.570618,261.986511 754.506348,259.469208 743.474426,256.858765 
	C714.702271,250.050537 687.975830,254.704086 663.375854,271.200623 
	C657.300598,275.274628 653.592712,275.506531 651.109375,271.925598 
	C648.515381,268.185089 650.326599,264.289246 656.249756,260.269073 
	C670.250183,250.766739 685.718079,244.944580 702.226318,241.662704 
	C703.010071,241.506882 703.770996,241.236069 704.900146,240.918106 
	C704.227112,237.536636 702.054504,235.165894 700.582397,232.476776 
	C697.822693,227.435944 698.288513,223.411987 701.991150,220.988251 
	C705.899780,218.429657 710.153687,219.670334 713.266846,224.715378 
	C715.709351,228.673431 717.756592,232.881195 719.871643,237.032959 
	C720.817627,238.890030 721.720947,240.612244 724.154114,240.622345 
	C735.095703,240.667770 745.538452,243.695801 756.035095,246.208923 
	C760.987732,247.394669 763.670410,246.132080 765.745361,241.434021 
	C768.428772,235.358276 771.686218,229.504623 775.094360,223.792725 
	C776.995911,220.605835 780.115906,218.878281 784.077820,220.252075 
	C787.306152,221.371521 788.787659,223.924240 788.924011,227.151550 
	C789.025879,229.561676 787.605957,231.565674 786.423157,233.578583 
	C784.081665,237.563507 781.435364,241.397873 779.953552,246.208786 
	C784.235657,247.525513 787.999756,245.926315 791.701233,244.966599 
	C807.000183,240.999878 820.334412,233.386658 831.943481,222.701767 
	C832.923950,221.799347 833.865906,220.847382 834.905701,220.018723 
	C837.741455,217.758484 840.736633,216.556564 843.861633,219.442825 
	C846.535828,221.912766 846.336975,225.975327 843.456970,229.296997 
	C842.587158,230.300201 841.562927,231.169479 840.346802,232.345551 
z"/>
<path fill="#000000" opacity="1.000000" stroke="none" 
	d="
M235.790222,180.062408 
	C247.108002,143.832596 277.216492,121.108925 312.606415,121.739983 
	C351.472809,122.433022 384.787903,153.380585 388.466125,191.931259 
	C389.799896,205.909897 388.905457,219.884308 389.135132,233.858429 
	C389.186615,236.989273 388.383331,240.264572 384.370300,240.153229 
	C380.513611,240.046219 379.692535,236.972519 379.686981,233.717514 
	C379.667938,222.556000 379.709045,211.394333 379.683777,200.232849 
	C379.603394,164.728271 352.200378,134.579559 317.168304,131.429520 
	C282.699432,128.330124 250.214905,152.846222 243.631485,187.163284 
	C241.134216,200.180649 242.676193,213.408676 242.346680,226.539581 
	C242.267319,229.702667 242.421432,232.878998 242.187927,236.028458 
	C242.009811,238.430878 240.546631,240.030563 238.026260,240.242386 
	C235.429199,240.460648 234.070496,238.888107 233.329178,236.619797 
	C233.174927,236.147827 233.003860,235.646103 233.012634,235.161209 
	C233.343582,216.902161 231.217941,198.520508 235.790222,180.062408 
z"/>
<path fill="#000000" opacity="1.000000" stroke="none" 
	d="
M535.713745,242.797333 
	C532.705322,244.628220 530.119446,246.537354 527.249329,247.800858 
	C523.453491,249.471924 519.969971,248.679794 517.797607,244.853821 
	C515.672668,241.111313 516.480286,237.659058 519.826111,235.114029 
	C523.264343,232.498749 527.082153,230.384476 530.538269,227.790359 
	C544.848938,217.048904 554.879211,202.873734 562.890442,187.100067 
	C566.334167,180.319626 571.519348,176.305634 579.512512,176.543777 
	C586.677612,176.757263 591.287964,180.572021 594.340149,186.650299 
	C601.134094,200.179916 609.786926,212.280945 621.118042,222.430023 
	C625.733887,226.564331 630.823547,230.002533 635.911011,233.476059 
	C640.440674,236.568756 641.832458,241.050339 639.547668,244.974380 
	C637.260376,248.902786 632.917358,249.647369 627.758301,246.622208 
	C610.023132,236.222748 597.216125,221.130463 587.138611,203.500656 
	C585.817932,201.190231 584.752930,198.734741 583.462708,196.405609 
	C582.371155,194.435120 581.893066,191.646286 579.056458,191.479034 
	C576.079773,191.303513 575.491272,194.137222 574.450378,196.091614 
	C569.194397,205.960571 563.375671,215.416534 556.148010,224.021713 
	C550.205017,231.097412 543.421753,237.158234 535.713745,242.797333 
z"/>
<path fill="#000000" opacity="1.000000" stroke="none" 
	d="
M757.999878,212.419220 
	C732.033691,212.411179 706.567505,212.404663 681.101318,212.387512 
	C679.438354,212.386398 677.743530,212.493011 676.119263,212.219070 
	C672.923157,211.680069 671.175903,209.502533 670.833801,206.407883 
	C670.508118,203.461487 671.923828,201.249435 674.596252,199.967026 
	C676.920898,198.851471 679.454773,198.962418 681.951782,198.960602 
	C698.263489,198.948792 714.575134,198.941605 730.886841,198.933182 
	C732.690979,198.932251 734.495117,198.933060 736.559875,198.933060 
	C736.691162,194.764221 734.514587,191.933533 733.131104,188.867401 
	C730.609314,183.278656 731.380005,179.261993 735.518677,177.185928 
	C739.777405,175.049667 744.194763,176.888397 746.804688,182.247711 
	C748.693970,186.127441 750.380127,190.138474 751.756409,194.225784 
	C752.949890,197.770172 754.936707,199.055359 758.723450,199.009079 
	C774.200500,198.819946 789.681396,198.931580 805.160828,198.946854 
	C806.823242,198.948502 808.510193,198.880936 810.143066,199.127899 
	C814.243042,199.747955 816.446350,202.378326 816.117920,206.385101 
	C815.810608,210.133362 813.438782,212.370087 809.432190,212.376373 
	C798.779724,212.393112 788.127319,212.403625 777.474854,212.412857 
	C771.149902,212.418335 764.824890,212.416702 757.999878,212.419220 
z"/>
<path fill="#000000" opacity="1.000000" stroke="none" 
	d="
M349.975708,190.155609 
	C354.298340,197.690872 356.375458,205.377029 356.419830,213.782791 
	C356.470703,223.415375 355.431335,233.099167 357.206268,242.684723 
	C359.482574,254.978043 368.230804,262.484741 380.810455,262.999176 
	C382.140289,263.053558 383.485992,263.029083 384.794128,263.234039 
	C386.972229,263.575287 388.690033,264.681763 388.520294,267.120117 
	C388.368896,269.294769 386.688110,269.997284 384.671112,270.269836 
	C370.491211,272.185699 354.242096,261.116974 350.746613,247.072159 
	C348.702698,238.859879 349.871490,230.490601 349.676880,222.193115 
	C349.532501,216.037979 349.684814,209.919861 348.063812,203.861511 
	C342.953705,184.762497 325.398010,173.685898 304.146149,176.343430 
	C287.069763,178.478821 272.708710,194.873566 272.178589,212.708374 
	C272.015594,218.192490 271.643097,223.673615 271.227081,229.145493 
	C271.045898,231.528503 270.456116,234.204010 267.385712,233.980606 
	C264.484283,233.769501 264.573822,231.149139 264.673767,228.943604 
	C265.153900,218.350632 264.156403,207.587555 268.554779,197.459473 
	C276.005646,180.302399 289.158752,170.509308 307.614990,169.105545 
	C325.367126,167.755325 339.751770,174.744110 349.975708,190.155609 
z"/>
<path fill="#000000" opacity="1.000000" stroke="none" 
	d="
M603.785767,257.315338 
	C586.319824,257.314728 569.325806,257.342255 552.332031,257.291138 
	C547.203247,257.275696 544.037109,254.766144 543.795471,250.813461 
	C543.539917,246.632019 546.652039,243.678818 551.888123,243.228897 
	C553.544312,243.086594 555.216858,243.101318 556.881958,243.100616 
	C571.043579,243.094635 585.205200,243.097672 599.366821,243.110107 
	C601.031799,243.111572 602.702576,243.111328 604.360718,243.240158 
	C610.446899,243.713104 613.295227,246.044876 613.291138,250.468826 
	C613.286926,255.007416 610.581299,257.057495 603.785767,257.315338 
z"/>
<path fill="#000000" opacity="1.000000" stroke="none" 
	d="
M297.970825,157.672729 
	C313.510559,153.511154 327.385437,156.354980 340.098572,165.305649 
	C341.714294,166.443192 343.174805,167.857681 344.508087,169.324829 
	C345.968292,170.931610 346.659119,172.852859 344.747528,174.613358 
	C342.931061,176.286240 341.097229,175.732178 339.398712,174.246933 
	C333.931580,169.466309 327.909027,165.729889 320.681824,164.221954 
	C305.902283,161.138275 292.977905,164.629578 282.045685,175.125687 
	C280.006287,177.083725 277.970947,180.017227 275.065765,176.964615 
	C272.173462,173.925537 275.347382,171.846313 277.203979,169.917664 
	C282.873413,164.028214 289.800446,160.167038 297.970825,157.672729 
z"/>
<path fill="#000000" opacity="1.000000" stroke="none" 
	d="
M318.952271,297.241364 
	C321.446045,293.678406 324.036041,294.523468 326.259064,296.796417 
	C337.646637,308.439728 351.293304,315.860931 367.197968,319.271423 
	C369.960541,319.863800 372.496002,321.407410 371.697632,324.734406 
	C370.892090,328.091339 368.087982,328.094147 365.234497,327.441803 
	C348.454620,323.605835 333.763977,315.949493 321.610046,303.644318 
	C319.967468,301.981293 318.225403,300.334290 318.952271,297.241364 
z"/>
<path fill="#000000" opacity="1.000000" stroke="none" 
	d="
M327.601074,289.041351 
	C326.241943,286.280670 327.094879,284.465698 329.327667,283.349823 
	C331.782135,282.123138 333.459381,283.824432 334.948517,285.368927 
	C342.097168,292.783447 350.381592,298.412689 360.154572,301.792084 
	C364.881256,303.426483 369.712341,304.479462 374.702728,304.911285 
	C377.708862,305.171387 380.552734,306.104187 380.107269,309.921417 
	C379.678741,313.593567 376.650116,313.558990 373.969269,313.255249 
	C355.555237,311.169250 340.084747,303.329102 327.601074,289.041351 
z"/>
</svg>