<svg version="1.1" id="Layer_1" xmlns="http://www.w3.org/2000/svg" xmlns:xlink="http://www.w3.org/1999/xlink" x="0px" y="0px"
	 width="100%" viewBox="0 0 1024 560" enable-background="new 0 0 1024 560" xml:space="preserve">
<path fill="#000000" opacity="1.000000" stroke="none" 
	d="
M860.387695,263.366089 
	C863.865112,260.475861 867.047729,257.788300 870.268250,255.146851 
	C877.011536,249.616150 884.248352,249.300247 889.090820,254.293671 
	C893.766724,259.115509 893.389343,265.996460 887.576477,272.646729 
	C877.175232,284.546417 864.646423,293.937500 851.284058,302.212158 
	C839.509094,309.503815 827.271851,315.973633 814.159363,320.536957 
	C810.327515,321.870453 809.164185,323.878906 809.183655,327.832977 
	C809.328125,357.161835 809.222656,386.491821 809.268921,415.821320 
	C809.274963,419.685486 808.872986,423.467010 808.036011,427.213745 
	C803.348938,448.194916 789.587708,459.923889 768.065735,460.043549 
	C720.573364,460.307556 673.076782,460.356323 625.585205,460.020782 
	C601.805786,459.852783 585.765320,443.041534 585.646301,419.088165 
	C585.502258,390.092590 585.602295,361.095795 585.566956,332.099579 
	C585.563538,329.271973 585.459106,326.435333 585.216431,323.618896 
	C584.460571,314.847900 586.567627,310.655121 594.424133,306.620178 
	C623.509583,291.682556 653.901550,288.093323 685.569702,296.531464 
	C699.247375,300.175964 712.766724,304.568329 726.781616,306.692810 
	C752.031006,310.520325 776.542114,306.977051 800.498291,298.481201 
	C822.611450,290.638977 842.298096,278.737000 860.387695,263.366089 
M618.329407,426.098846 
	C623.438171,431.934662 630.345154,432.856903 637.461121,432.871674 
	C669.289307,432.937622 701.117676,432.921143 732.945984,432.913513 
	C741.944275,432.911346 750.946960,433.003021 759.939697,432.758575 
	C772.624023,432.413818 778.854248,426.654083 780.478516,414.109314 
	C780.712708,412.300507 780.688354,410.451080 780.690002,408.620361 
	C780.711426,384.790833 780.723633,360.961273 780.719543,337.131744 
	C780.718506,330.852814 780.456238,330.703186 774.081116,331.835724 
	C756.881042,334.891449 739.644958,335.054382 722.370972,332.445068 
	C707.012756,330.125183 692.209656,325.432709 677.132385,321.914215 
	C657.307495,317.287872 637.831665,318.196869 618.561340,324.816833 
	C615.329102,325.927185 614.124878,327.585236 614.187012,330.961029 
	C614.358765,340.289673 614.197144,349.623871 614.253662,358.955353 
	C614.311340,368.484985 612.972839,367.984344 623.528931,367.985382 
	C662.356140,367.989288 701.183289,367.960358 740.010498,367.943115 
	C742.676025,367.941925 745.333069,367.896393 747.938965,368.679047 
	C753.646667,370.393341 757.760620,375.398041 758.009888,381.037292 
	C758.246033,386.377991 754.658997,391.620056 749.282898,393.863708 
	C746.598267,394.984131 743.792542,395.094452 740.943054,395.094269 
	C701.449280,395.091797 661.955566,395.106293 622.461792,395.120026 
	C620.795837,395.120605 619.129456,395.134674 617.464111,395.177979 
	C615.801880,395.221252 614.354187,395.781921 614.394104,397.694244 
	C614.590210,407.082611 612.534790,416.765991 618.329407,426.098846 
z"/>
<path fill="#000000" opacity="1.000000" stroke="none" 
	d="
M216.841644,364.000000 
	C216.841095,351.057770 216.841095,338.615570 216.841095,325.710022 
	C211.153549,326.917603 206.954086,329.682251 202.424911,331.586456 
	C197.975250,333.457275 193.654068,335.631348 189.227676,337.560333 
	C180.729538,341.263733 172.560944,338.798096 169.063110,331.556122 
	C165.616425,324.420074 168.839447,316.344635 177.350479,312.317688 
	C188.034027,307.262848 198.853806,302.466949 209.791321,297.990723 
	C214.897919,295.900879 217.089325,293.249359 216.990250,287.316956 
	C216.592453,263.499878 216.705826,239.670868 216.943436,215.849396 
	C216.993729,210.807190 215.505280,209.094894 210.420532,209.305908 
	C201.772583,209.664749 193.097626,209.458267 184.435410,209.363144 
	C176.177948,209.272491 169.732239,203.296234 169.896698,196.064468 
	C170.079849,188.011002 175.942963,182.642120 184.693527,182.599716 
	C193.523132,182.556931 202.357819,182.408920 211.180786,182.651993 
	C215.487000,182.770630 216.980804,181.412323 216.917038,176.954208 
	C216.678787,160.297577 216.761963,143.635284 216.838669,126.975655 
	C216.878510,118.319511 222.035858,112.278198 229.547150,111.742035 
	C238.918976,111.073059 244.937668,116.788490 245.075562,127.098099 
	C245.280548,142.422592 245.138947,157.751678 245.152100,173.078796 
	C245.159775,182.029556 245.166199,182.018936 254.040619,182.088562 
	C258.537262,182.123840 263.055847,181.943253 267.525146,182.323349 
	C275.629395,183.012589 280.684937,188.927597 280.252106,196.752014 
	C279.840546,204.192123 274.240723,209.316620 266.327057,209.396667 
	C260.663300,209.453964 254.997910,209.446411 249.334259,209.380539 
	C246.817535,209.351288 245.130646,209.963272 245.144592,212.938522 
	C245.247665,234.925491 245.305634,256.912659 245.398697,278.899689 
	C245.399933,279.191833 245.672745,279.482758 246.077621,280.290802 
	C251.448044,278.799164 256.122742,275.547668 261.231506,273.343170 
	C267.539551,270.621216 272.879089,271.483032 276.703125,275.961548 
	C280.973907,280.963287 281.591583,288.474304 278.051697,293.621826 
	C276.022522,296.572540 273.206726,298.634033 269.978912,300.140015 
	C263.338501,303.238190 256.749878,306.456146 250.030640,309.373077 
	C246.519455,310.897339 245.091354,313.068970 245.117081,317.002991 
	C245.267441,339.992737 245.357178,362.985901 245.109619,385.974091 
	C244.953140,400.505096 243.390549,414.826813 237.332169,428.389374 
	C228.825195,447.433411 213.570694,457.949219 194.104935,463.010468 
	C184.979233,465.383240 177.713837,461.472931 175.461777,454.060699 
	C173.082870,446.230957 177.242050,438.504547 185.771576,434.957123 
	C186.999771,434.446259 188.250778,433.956879 189.533203,433.614929 
	C206.301453,429.143951 213.590897,417.145111 215.862167,400.925018 
	C217.559784,388.801605 216.514862,376.640259 216.841644,364.000000 
z"/>
<path fill="#000000" opacity="1.000000" stroke="none" 
	d="
M422.953430,460.102966 
	C394.978699,460.088501 367.496552,460.085999 340.014374,460.054443 
	C312.378265,460.022705 295.782532,443.548401 295.657471,415.853455 
	C295.556702,393.535126 295.554657,371.215363 295.679840,348.897217 
	C295.826263,322.795532 312.971832,305.796417 339.142609,305.737091 
	C367.457428,305.672943 395.772705,305.672577 424.087494,305.748505 
	C451.968048,305.823273 468.379578,321.601959 469.382874,349.288757 
	C470.215210,372.257812 470.263275,395.234161 469.408783,418.204529 
	C468.435791,444.359924 452.179565,459.984283 425.944244,460.100006 
	C425.111481,460.103668 424.278717,460.101562 422.953430,460.102966 
M439.759918,348.842590 
	C437.845612,338.261383 431.812805,333.124420 420.673065,333.081177 
	C395.853790,332.984833 371.033875,333.028290 346.214264,333.055176 
	C332.358459,333.070190 325.599945,339.303558 325.357758,353.367096 
	C325.016541,373.182983 325.055878,393.012787 325.367645,412.829773 
	C325.560272,425.074646 332.567657,432.402100 344.695312,432.573364 
	C369.509216,432.923737 394.339264,432.998871 419.148315,432.488861 
	C432.956177,432.204987 438.906525,426.429382 439.857849,412.574097 
	C441.294800,391.646027 441.171021,370.657898 439.759918,348.842590 
z"/>
<path fill="#000000" opacity="1.000000" stroke="none" 
	d="
M782.764771,215.253403 
	C778.828552,225.658386 772.368469,234.314987 768.119080,244.094894 
	C767.033630,246.593018 765.074402,248.871811 765.656067,252.392593 
	C775.313416,251.785446 784.408569,249.252274 793.307739,246.187271 
	C821.844116,236.358978 846.579773,220.482071 867.550842,198.761337 
	C867.897949,198.401855 868.231567,198.028931 868.585266,197.676071 
	C874.506104,191.768021 881.092224,190.866821 886.377991,195.238495 
	C892.024292,199.908295 892.701904,207.454590 887.529968,214.039108 
	C875.862793,228.892899 861.212402,240.416702 845.400879,250.482697 
	C819.685852,266.853577 791.688904,276.742889 761.265991,279.716278 
	C742.379150,281.562164 724.045105,278.401093 705.917725,273.810089 
	C685.034241,268.521027 664.183777,263.845947 642.366760,265.021729 
	C615.880676,266.449066 591.516724,274.810638 568.060730,286.476501 
	C559.236145,290.865356 550.943787,296.109985 543.339172,302.423767 
	C541.818420,303.686462 540.071960,304.743011 538.293152,305.617279 
	C532.444641,308.491547 526.246948,307.260071 522.446533,302.608734 
	C518.570496,297.864807 518.704407,291.229614 523.019348,286.091370 
	C526.690491,281.719696 531.345215,278.431305 535.996887,275.201813 
	C561.557434,257.455902 589.673828,245.910065 620.330322,240.549820 
	C621.779236,240.296463 623.198303,239.872330 625.138733,239.405685 
	C622.113220,232.380753 618.022949,226.317932 614.415283,220.012909 
	C611.864441,215.554855 610.888062,211.110168 612.996582,206.206680 
	C617.271667,196.264542 628.233276,193.950836 635.683411,201.768768 
	C643.422241,209.889603 647.669250,220.170822 651.577332,230.426270 
	C653.519043,235.521667 655.815979,238.131409 661.645569,238.465012 
	C683.397888,239.709900 704.124512,246.393173 725.200012,251.217529 
	C733.304382,253.072708 733.166077,252.972061 736.222900,245.459183 
	C741.943115,231.400375 748.602356,217.789703 756.805298,204.996628 
	C760.906982,198.599701 766.540466,196.096664 772.320984,197.598434 
	C780.148987,199.632156 783.894165,205.746750 782.764771,215.253403 
z"/>
<path fill="#000000" opacity="1.000000" stroke="none" 
	d="
M477.642883,216.334229 
	C483.533813,220.447708 489.328857,224.101471 494.701172,228.296616 
	C501.171570,233.349228 502.717957,240.852203 499.219879,247.420715 
	C495.723724,253.985611 488.594971,257.137238 481.475372,255.289841 
	C478.996857,254.646713 476.956696,253.193192 474.889648,251.798065 
	C442.769928,230.119385 417.953827,201.826401 399.302185,168.016373 
	C395.929474,161.902603 393.146088,155.465363 390.030212,149.207550 
	C388.392456,145.918350 387.996735,141.214539 383.020508,141.159363 
	C377.962585,141.103241 377.509949,145.935791 375.994232,149.176483 
	C366.998016,168.410629 356.510315,186.713058 343.058167,203.215759 
	C327.376556,222.453476 309.374573,239.162094 288.618164,252.826691 
	C281.123444,257.760712 273.774963,256.530823 268.337860,249.624634 
	C263.210571,243.112000 263.846344,235.544861 270.649567,229.698380 
	C275.431641,225.588837 280.833649,222.203918 285.931366,218.457993 
	C311.849640,199.412598 330.606140,174.414291 345.734436,146.413376 
	C348.741516,140.847580 351.478516,135.130035 354.629822,129.649048 
	C364.004456,113.343887 382.100342,107.188637 397.289276,115.061157 
	C404.215637,118.651146 408.809418,124.426125 412.288361,131.288284 
	C422.321899,151.079269 433.166840,170.379211 447.517578,187.459656 
	C456.434814,198.073135 466.102478,207.927185 477.642883,216.334229 
z"/>
<path fill="#000000" opacity="1.000000" stroke="none" 
	d="
M772.000122,155.609009 
	C788.162842,155.605865 803.825562,155.603699 819.488281,155.601166 
	C829.158325,155.599594 834.961426,160.474182 834.960205,168.598221 
	C834.958984,176.597778 828.521545,182.141068 819.088318,182.142029 
	C749.939026,182.149078 680.789795,182.135437 611.640503,182.129135 
	C598.810425,182.127960 585.977722,182.292435 573.151062,182.082520 
	C561.785217,181.896515 555.393982,171.131058 560.926025,161.851532 
	C563.794128,157.040649 568.206482,155.547714 573.638428,155.560593 
	C608.795959,155.643890 643.953796,155.597198 679.111572,155.565140 
	C680.913635,155.563492 682.775269,155.926651 684.796204,154.968994 
	C684.961243,151.083191 682.792725,147.810455 681.461914,144.357040 
	C679.547974,139.390366 676.986694,134.664062 675.216187,129.653366 
	C672.552490,122.114876 675.438538,115.732101 682.579895,112.274902 
	C689.178589,109.080391 696.040833,111.177406 700.408569,117.571854 
	C707.285767,127.640182 710.650269,139.206375 714.403381,150.573822 
	C715.660645,154.381760 717.465210,155.735489 721.513916,155.682602 
	C738.173462,155.464996 754.837585,155.602768 772.000122,155.609009 
z"/>
<path fill="#000000" opacity="1.000000" stroke="none" 
	d="
M315.881653,257.207642 
	C318.007446,248.238251 322.382690,244.621033 331.038116,244.613602 
	C365.336548,244.584198 399.635040,244.593079 433.933441,244.640823 
	C443.108612,244.653595 449.051636,250.070480 449.134949,258.259766 
	C449.212616,265.898102 443.060547,271.895538 434.371338,271.921204 
	C399.740417,272.023529 365.108459,272.027283 330.477936,271.852997 
	C321.287170,271.806732 316.491302,266.767151 315.881653,257.207642 
z"/>
</svg>